<svg xmlns="http://www.w3.org/2000/svg" viewBox="0 0 14.16 13"><defs><style>.cls-1{fill:#cad1ea;}</style></defs><g id="katman_2" data-name="katman 2"><g id="eye_fill2" data-name="eye fill2"><path class="cls-1" d="M14,6.12a7.88,7.88,0,0,0-.82-1.48L6.36,11.46a5.79,5.79,0,0,0,.72,0A7.47,7.47,0,0,0,14,6.88l.16-.38Z"/><path class="cls-1" d="M9,6l2.8-2.8,1.48-1.48A1,1,0,0,0,11.87.29L10.05,2.11A7.16,7.16,0,0,0,7.8,1.54a5.79,5.79,0,0,0-.72,0A7.47,7.47,0,0,0,.16,6.12L0,6.5l.16.38A7.88,7.88,0,0,0,1,8.36,7,7,0,0,0,2.35,9.81L.87,11.29a1,1,0,0,0,0,1.42,1,1,0,0,0,1.42,0l1.82-1.82L6.57,8.43ZM5.08,6.5a2,2,0,0,1,2-2,1.7,1.7,0,0,1,.51.07L5.15,7A1.7,1.7,0,0,1,5.08,6.5Z"/></g></g></svg>