<svg xmlns="http://www.w3.org/2000/svg" viewBox="0 0 42 42"><defs><style>.cls-1{fill:#f2f4f9;}.cls-2,.cls-3{fill:none;stroke-linecap:round;stroke-linejoin:round;stroke-width:2px;}.cls-2{stroke:#90a1d3;}.cls-3{stroke:#cad1ea;}</style></defs><g id="katman_2" data-name="katman 2"><g id="upload"><circle class="cls-1" cx="21" cy="21" r="21"/><line class="cls-2" x1="21" y1="15" x2="21" y2="7"/><line class="cls-2" x1="21" y1="7" x2="17" y2="11"/><line class="cls-2" x1="21" y1="7" x2="25" y2="11"/><line class="cls-3" x1="18" y1="27" x2="12" y2="27"/><path class="cls-2" d="M28,22h1.6a2,2,0,0,1,1.75,3L28,31V22a2,2,0,0,0-2-2H17.47L16,18H14a2,2,0,0,0-2,2v9a2,2,0,0,0,2,2H28V29"/></g></g></svg>